<mxfile host="app.diagrams.net" modified="2023-10-12T10:03:22.126Z" agent="Mozilla/5.0 (Windows NT 10.0; Win64; x64) AppleWebKit/537.36 (KHTML, like Gecko) Chrome/117.0.0.0 Safari/537.36" etag="EyB6_2vTLr9TlwI578to" version="21.8.2" type="github">
  <diagram name="第 1 页" id="xGGkfbK6TPt2-oSzVxeK">
    <mxGraphModel dx="2247" dy="744" grid="1" gridSize="10" guides="1" tooltips="1" connect="1" arrows="1" fold="1" page="1" pageScale="1" pageWidth="827" pageHeight="1169" math="0" shadow="0">
      <root>
        <mxCell id="0" />
        <mxCell id="1" parent="0" />
        <mxCell id="0-y21MWVwoMFl5Ftppno-1" value="" style="rounded=0;whiteSpace=wrap;html=1;fillColor=#fff2cc;strokeColor=#d6b656;" vertex="1" parent="1">
          <mxGeometry x="90" y="140" width="100" height="430" as="geometry" />
        </mxCell>
        <mxCell id="0-y21MWVwoMFl5Ftppno-2" value="" style="rounded=0;whiteSpace=wrap;html=1;fillColor=#fff2cc;strokeColor=#d6b656;" vertex="1" parent="1">
          <mxGeometry x="240" y="140" width="100" height="430" as="geometry" />
        </mxCell>
        <mxCell id="0-y21MWVwoMFl5Ftppno-3" value="" style="rounded=0;whiteSpace=wrap;html=1;fillColor=#fff2cc;strokeColor=#d6b656;" vertex="1" parent="1">
          <mxGeometry x="400" y="140" width="100" height="430" as="geometry" />
        </mxCell>
        <mxCell id="0-y21MWVwoMFl5Ftppno-4" value="" style="rounded=0;whiteSpace=wrap;html=1;fillColor=#fff2cc;strokeColor=#d6b656;" vertex="1" parent="1">
          <mxGeometry x="560" y="140" width="100" height="430" as="geometry" />
        </mxCell>
        <mxCell id="0-y21MWVwoMFl5Ftppno-5" value="Broker1" style="text;html=1;strokeColor=none;fillColor=none;align=center;verticalAlign=middle;whiteSpace=wrap;rounded=0;fontStyle=1;fontSize=14;" vertex="1" parent="1">
          <mxGeometry x="110" y="580" width="60" height="30" as="geometry" />
        </mxCell>
        <mxCell id="0-y21MWVwoMFl5Ftppno-6" value="Broker2" style="text;html=1;strokeColor=none;fillColor=none;align=center;verticalAlign=middle;whiteSpace=wrap;rounded=0;fontStyle=1;fontSize=14;" vertex="1" parent="1">
          <mxGeometry x="260" y="580" width="60" height="30" as="geometry" />
        </mxCell>
        <mxCell id="0-y21MWVwoMFl5Ftppno-7" value="Broker3" style="text;html=1;strokeColor=none;fillColor=none;align=center;verticalAlign=middle;whiteSpace=wrap;rounded=0;fontStyle=1;fontSize=14;" vertex="1" parent="1">
          <mxGeometry x="414" y="580" width="60" height="30" as="geometry" />
        </mxCell>
        <mxCell id="0-y21MWVwoMFl5Ftppno-8" value="Broker4" style="text;html=1;strokeColor=none;fillColor=none;align=center;verticalAlign=middle;whiteSpace=wrap;rounded=0;fontStyle=1;fontSize=14;" vertex="1" parent="1">
          <mxGeometry x="580" y="580" width="60" height="30" as="geometry" />
        </mxCell>
        <mxCell id="0-y21MWVwoMFl5Ftppno-9" value="&lt;b&gt;&lt;font style=&quot;font-size: 15px;&quot;&gt;Topic_A&lt;/font&gt;&lt;/b&gt;" style="rounded=1;whiteSpace=wrap;html=1;fillColor=#f8cecc;strokeColor=#b85450;" vertex="1" parent="1">
          <mxGeometry x="-120" y="70" width="120" height="60" as="geometry" />
        </mxCell>
        <mxCell id="0-y21MWVwoMFl5Ftppno-11" value="&lt;span style=&quot;background-color: rgb(247, 247, 250); color: rgb(29, 31, 58); font-family: -apple-system, BlinkMacSystemFont, &amp;quot;Segoe UI&amp;quot;, Roboto, &amp;quot;Helvetica Neue&amp;quot;, Arial, &amp;quot;Noto Sans&amp;quot;, sans-serif, &amp;quot;Apple Color Emoji&amp;quot;, &amp;quot;Segoe UI Emoji&amp;quot;, &amp;quot;Segoe UI Symbol&amp;quot;, &amp;quot;Noto Color Emoji&amp;quot;; font-size: 14px; text-align: start;&quot;&gt;Topic_A&lt;br&gt;Partition1&lt;/span&gt;" style="shape=cylinder3;whiteSpace=wrap;html=1;boundedLbl=1;backgroundOutline=1;size=15;fillColor=#e1d5e7;strokeColor=#9673a6;fontStyle=1" vertex="1" parent="1">
          <mxGeometry x="100" y="170" width="80" height="70" as="geometry" />
        </mxCell>
        <mxCell id="0-y21MWVwoMFl5Ftppno-12" value="&lt;span style=&quot;background-color: rgb(247, 247, 250); color: rgb(29, 31, 58); font-family: -apple-system, BlinkMacSystemFont, &amp;quot;Segoe UI&amp;quot;, Roboto, &amp;quot;Helvetica Neue&amp;quot;, Arial, &amp;quot;Noto Sans&amp;quot;, sans-serif, &amp;quot;Apple Color Emoji&amp;quot;, &amp;quot;Segoe UI Emoji&amp;quot;, &amp;quot;Segoe UI Symbol&amp;quot;, &amp;quot;Noto Color Emoji&amp;quot;; font-size: 14px; text-align: start;&quot;&gt;Topic_A&lt;br&gt;Partition2&lt;/span&gt;" style="shape=cylinder3;whiteSpace=wrap;html=1;boundedLbl=1;backgroundOutline=1;size=15;fillColor=#e1d5e7;strokeColor=#9673a6;fontStyle=1" vertex="1" parent="1">
          <mxGeometry x="250" y="170" width="80" height="70" as="geometry" />
        </mxCell>
        <mxCell id="0-y21MWVwoMFl5Ftppno-13" value="&lt;span style=&quot;background-color: rgb(247, 247, 250); color: rgb(29, 31, 58); font-family: -apple-system, BlinkMacSystemFont, &amp;quot;Segoe UI&amp;quot;, Roboto, &amp;quot;Helvetica Neue&amp;quot;, Arial, &amp;quot;Noto Sans&amp;quot;, sans-serif, &amp;quot;Apple Color Emoji&amp;quot;, &amp;quot;Segoe UI Emoji&amp;quot;, &amp;quot;Segoe UI Symbol&amp;quot;, &amp;quot;Noto Color Emoji&amp;quot;; font-size: 14px; text-align: start;&quot;&gt;Topic_A&lt;br&gt;Partition3&lt;/span&gt;" style="shape=cylinder3;whiteSpace=wrap;html=1;boundedLbl=1;backgroundOutline=1;size=15;fillColor=#e1d5e7;strokeColor=#9673a6;fontStyle=1" vertex="1" parent="1">
          <mxGeometry x="410" y="170" width="80" height="70" as="geometry" />
        </mxCell>
        <mxCell id="0-y21MWVwoMFl5Ftppno-14" value="&lt;span style=&quot;background-color: rgb(247, 247, 250); color: rgb(29, 31, 58); font-family: -apple-system, BlinkMacSystemFont, &amp;quot;Segoe UI&amp;quot;, Roboto, &amp;quot;Helvetica Neue&amp;quot;, Arial, &amp;quot;Noto Sans&amp;quot;, sans-serif, &amp;quot;Apple Color Emoji&amp;quot;, &amp;quot;Segoe UI Emoji&amp;quot;, &amp;quot;Segoe UI Symbol&amp;quot;, &amp;quot;Noto Color Emoji&amp;quot;; font-size: 14px; text-align: start;&quot;&gt;Topic_A&lt;br&gt;Partition4&lt;/span&gt;" style="shape=cylinder3;whiteSpace=wrap;html=1;boundedLbl=1;backgroundOutline=1;size=15;fillColor=#e1d5e7;strokeColor=#9673a6;fontStyle=1" vertex="1" parent="1">
          <mxGeometry x="570" y="170" width="80" height="70" as="geometry" />
        </mxCell>
      </root>
    </mxGraphModel>
  </diagram>
</mxfile>
